<?xml version="1.0" encoding="utf-8"?>
<!-- Generator: Adobe Illustrator 25.2.1, SVG Export Plug-In . SVG Version: 6.00 Build 0)  -->
<svg version="1.1" id="Layer_1" xmlns="http://www.w3.org/2000/svg" xmlns:xlink="http://www.w3.org/1999/xlink" x="0px" y="0px"
	 viewBox="0 0 864 864" style="enable-background:new 0 0 864 864;" xml:space="preserve">
<style type="text/css">
	.st0{fill:#434345;stroke:#000000;stroke-miterlimit:10;}
	.st1{fill:#FFFFFF;stroke:#000000;stroke-miterlimit:10;}
	.st2{fill:#A52D3B;stroke:#FFFFFF;stroke-width:3;stroke-miterlimit:10;}
	.st3{fill:#3D3D3E;}
	.st4{fill:#FFFFFF;}
	.st5{fill:none;}
</style>
<circle class="st0" cx="639.8" cy="436.9" r="197.2"/>
<circle class="st1" cx="639.8" cy="436.9" r="61.8"/>
<path class="st2" d="M277.9,239.8c-0.5,134.9-1,269.8-1.5,404.6c127.5-0.5,255-1,382.6-1.5c-2.5-135.9-4.9-271.7-7.4-407.6
	C527,236.8,402.4,238.3,277.9,239.8z"/>
<g>
	<path class="st3" d="M313.2,694.7c-50-0.2-100.2-6.1-148.9-17.7c-0.7-0.2-1.2-0.8-1.2-1.5l19-334.6L54.7,390.1
		c-0.2,0.1-0.4,0.1-0.5,0.1c-0.2,0-0.4,0-0.7-0.1c-0.4-0.2-0.7-0.5-0.8-0.9L14.5,267c-0.2-0.5,0-1.1,0.4-1.5
		c36.1-34.9,77.9-62.3,124.1-81.2c37.2-15.3,76.4-24.7,116.7-28.1c0,0,0.1,0,0.1,0c0.4,0,0.7,0.1,1,0.4c8.9,7.5,33.2,24.9,67.1,24.9
		c2.3,0,4.6-0.1,6.8-0.2c28.2-1.9,48.4-15.4,58-23.2c0.3-0.2,0.6-0.3,0.9-0.3c0,0,0.1,0,0.1,0c40.7,3.7,80,14.1,116.7,31
		c52.3,24.1,98.8,61.4,134.5,107.9c0.4,0.5,0.4,1.3,0,1.8l-78,101.5c-0.3,0.4-0.7,0.6-1.2,0.6c-0.3,0-0.6-0.1-0.8-0.3l-94.6-64.5
		l19,335.4c0,0.7-0.4,1.4-1.1,1.5c-55.1,14.7-111.9,22.1-168.8,22.1L313.2,694.7z"/>
	<path class="st4" d="M255.8,157.6c5.7,4.8,31.1,25.3,68.1,25.3c2.3,0,4.6-0.1,6.9-0.2c30.6-2.1,51.3-17.4,58.9-23.5
		c29.1,2.6,70.7,9.9,116.2,30.9c70.3,32.4,113,80.3,133.9,107.4c-26,33.8-52,67.7-78,101.5c-32.4-22.1-64.7-44.1-97.1-66.2
		c6.4,112.8,12.8,225.6,19.1,338.4c-42.4,11.3-99.9,22.1-168.4,22.1c-0.8,0-1.5,0-2.3,0c-59.1-0.2-109.6-8.4-148.6-17.7
		c6.4-112.3,12.8-224.6,19.1-336.9c-43.2,16.7-86.3,33.4-129.5,50C41.5,347.9,28.7,307.2,16,266.5c24-23.2,64.8-56.8,123.6-80.9
		C185.2,166.9,226.3,160.1,255.8,157.6 M255.8,154.6c-0.1,0-0.2,0-0.2,0c-40.4,3.4-79.8,12.8-117.1,28.2
		c-46.4,19-88.3,46.5-124.5,81.5c-0.8,0.8-1.1,2-0.8,3.1l38.3,122.1c0.2,0.8,0.8,1.4,1.6,1.8c0.4,0.2,0.9,0.3,1.3,0.3
		c0.4,0,0.7-0.1,1.1-0.2l125.1-48.3l-18.9,332.3c-0.1,1.5,0.9,2.8,2.3,3.1c48.9,11.6,99.1,17.6,149.3,17.7c0.8,0,1.5,0,2.3,0
		c57,0,114-7.5,169.2-22.2c1.4-0.4,2.3-1.6,2.2-3.1l-9.3-164.6l-9.5-167.8l92.1,62.8c0.5,0.4,1.1,0.5,1.7,0.5c0.9,0,1.8-0.4,2.4-1.2
		l39-50.8l39-50.8c0.8-1.1,0.8-2.6,0-3.7c-35.8-46.7-82.5-84.2-135-108.3c-36.9-17-76.3-27.5-117.2-31.2c-0.1,0-0.2,0-0.3,0
		c-0.7,0-1.4,0.2-1.9,0.7c-9.4,7.7-29.4,21-57.2,22.9c-2.2,0.2-4.5,0.2-6.7,0.2c-33.5,0-57.4-17.2-66.2-24.5
		C257.2,154.9,256.5,154.6,255.8,154.6L255.8,154.6z"/>
</g>
<rect x="1082.4" y="102" class="st5" width="268.8" height="83.5"/>
<text transform="matrix(1 0 0 1 1082.4337 158.1254)" class="st4" style="font-family:'MyriadPro-Regular'; font-size:79px;">MERCH</text>
<path id="SVGID_x5F_1_x5F_" class="st5" d="M226.4,563.7l335.2-334.2"/>
<text><textPath  xlink:href="#SVGID_x5F_1_x5F_" startOffset="10.9375%">
<tspan  class="st4" style="font-family:'MyriadPro-Regular'; font-size:130.5576px;">MERCH</tspan></textPath>
</text>
</svg>
