<?xml version="1.0" encoding="utf-8"?>
<!-- Generator: Adobe Illustrator 25.2.1, SVG Export Plug-In . SVG Version: 6.00 Build 0)  -->
<svg version="1.1" id="Layer_1" xmlns="http://www.w3.org/2000/svg" xmlns:xlink="http://www.w3.org/1999/xlink" x="0px" y="0px"
	 viewBox="0 0 2496 2500" style="enable-background:new 0 0 2496 2500;" xml:space="preserve">
<style type="text/css">
	.st0{fill:none;}
	.st1{fill:#FF0000;}
</style>
<path class="st0" d="M0.5,2.2H2496v2495.5H0.5V2.2z"/>
<path class="st1" d="M1292.4,1938.2l-409.1-7.5c-132.5-2.6-265.3,2.6-395.1-24.4C290.6,1865.9,276.6,1668,262,1502
	c-20.2-233.4-12.4-471,25.7-702.4c21.5-129.9,106.1-207.3,236.9-215.8c441.7-30.6,886.3-27,1327-12.7c46.5,1.3,93.4,8.5,139.3,16.6
	c226.5,39.7,232.1,264,246.8,452.8c14.6,190.7,8.5,382.4-19.5,571.9c-22.5,156.8-65.4,288.4-246.8,301.1
	c-227.2,16.6-449.2,30-677,25.7C1294.4,1938.2,1293.1,1938.2,1292.4,1938.2z M1051.9,1541.1c171.2-98.3,339.2-195,509.4-292.6
	c-171.5-98.3-339.2-195-509.4-292.6V1541.1z"/>
</svg>
